<mxfile host="app.diagrams.net" modified="2022-05-16T14:11:01.835Z" agent="5.0 (Macintosh; Intel Mac OS X 10_15_7) AppleWebKit/537.36 (KHTML, like Gecko) Chrome/94.0.4606.61 Safari/537.36" etag="gNjT1LsBq9kOcK_KeiIS" version="18.0.0" type="github">
  <diagram id="RuWVJdj8MPDNlAP0v2VX" name="Page-1">
    <mxGraphModel dx="1298" dy="735" grid="1" gridSize="10" guides="1" tooltips="1" connect="1" arrows="1" fold="1" page="1" pageScale="1" pageWidth="827" pageHeight="1169" math="0" shadow="0">
      <root>
        <mxCell id="0" />
        <mxCell id="1" parent="0" />
        <mxCell id="SO3rEvhul7Cc8DTPVC8Q-2" value="&lt;meta charset=&quot;utf-8&quot;&gt;&lt;span data-type=&quot;minder&quot; data-height=&quot;436&quot; data-width=&quot;719&quot; data-src=&quot;https://km.sankuai.com/api/file/cdn/1310019145/1837276848?contentType=0&amp;amp;isNewContent=false&amp;amp;isNewContent=false&quot; class=&quot;ct-minder ct-image-container ct-image-container-success&quot; style=&quot;width: 719px; display: inline-flex;&quot;&gt;&lt;div class=&quot;ct-web-dangers-shadow-wrapper&quot;&gt;&lt;/div&gt;&lt;span class=&quot;placeholder-for-copy&quot;&gt; &lt;/span&gt;&lt;/span&gt;" style="text;whiteSpace=wrap;html=1;" vertex="1" parent="1">
          <mxGeometry x="250" y="330" width="550" height="30" as="geometry" />
        </mxCell>
        <mxCell id="SO3rEvhul7Cc8DTPVC8Q-6" value="触摸开始" style="rounded=1;whiteSpace=wrap;html=1;" vertex="1" parent="1">
          <mxGeometry x="200" y="80" width="120" height="60" as="geometry" />
        </mxCell>
        <mxCell id="SO3rEvhul7Cc8DTPVC8Q-7" value="触摸移动" style="rounded=1;whiteSpace=wrap;html=1;" vertex="1" parent="1">
          <mxGeometry x="200" y="200" width="120" height="60" as="geometry" />
        </mxCell>
        <mxCell id="SO3rEvhul7Cc8DTPVC8Q-8" value="触摸结束" style="rounded=1;whiteSpace=wrap;html=1;" vertex="1" parent="1">
          <mxGeometry x="200" y="320" width="120" height="60" as="geometry" />
        </mxCell>
        <mxCell id="SO3rEvhul7Cc8DTPVC8Q-9" value="" style="endArrow=classic;html=1;exitX=0.5;exitY=1;exitDx=0;exitDy=0;" edge="1" parent="1" source="SO3rEvhul7Cc8DTPVC8Q-6" target="SO3rEvhul7Cc8DTPVC8Q-7">
          <mxGeometry width="50" height="50" relative="1" as="geometry">
            <mxPoint x="360" y="280" as="sourcePoint" />
            <mxPoint x="410" y="230" as="targetPoint" />
          </mxGeometry>
        </mxCell>
        <mxCell id="SO3rEvhul7Cc8DTPVC8Q-10" value="" style="endArrow=classic;html=1;exitX=0.5;exitY=1;exitDx=0;exitDy=0;entryX=0.5;entryY=0;entryDx=0;entryDy=0;" edge="1" parent="1" source="SO3rEvhul7Cc8DTPVC8Q-7" target="SO3rEvhul7Cc8DTPVC8Q-8">
          <mxGeometry width="50" height="50" relative="1" as="geometry">
            <mxPoint x="270" y="150" as="sourcePoint" />
            <mxPoint x="270" y="210" as="targetPoint" />
          </mxGeometry>
        </mxCell>
        <mxCell id="SO3rEvhul7Cc8DTPVC8Q-11" value="move事件触发。监听每次move的终点。" style="rounded=1;whiteSpace=wrap;html=1;" vertex="1" parent="1">
          <mxGeometry x="440" y="200" width="120" height="60" as="geometry" />
        </mxCell>
        <mxCell id="SO3rEvhul7Cc8DTPVC8Q-12" value="" style="endArrow=classic;html=1;exitX=0.5;exitY=1;exitDx=0;exitDy=0;" edge="1" parent="1" source="SO3rEvhul7Cc8DTPVC8Q-11">
          <mxGeometry width="50" height="50" relative="1" as="geometry">
            <mxPoint x="280" y="160" as="sourcePoint" />
            <mxPoint x="500" y="320" as="targetPoint" />
          </mxGeometry>
        </mxCell>
        <mxCell id="SO3rEvhul7Cc8DTPVC8Q-13" value="向量相减，存储本次旋转偏移" style="rounded=1;whiteSpace=wrap;html=1;" vertex="1" parent="1">
          <mxGeometry x="440" y="320" width="120" height="60" as="geometry" />
        </mxCell>
        <mxCell id="SO3rEvhul7Cc8DTPVC8Q-14" value="记录触摸开始点信息" style="rounded=1;whiteSpace=wrap;html=1;" vertex="1" parent="1">
          <mxGeometry x="440" y="80" width="120" height="60" as="geometry" />
        </mxCell>
        <mxCell id="SO3rEvhul7Cc8DTPVC8Q-15" value="rotateStart" style="text;html=1;strokeColor=none;fillColor=none;align=center;verticalAlign=middle;whiteSpace=wrap;rounded=0;" vertex="1" parent="1">
          <mxGeometry x="690" y="100" width="40" height="20" as="geometry" />
        </mxCell>
        <mxCell id="SO3rEvhul7Cc8DTPVC8Q-16" value="rotateEnd" style="text;html=1;strokeColor=none;fillColor=none;align=center;verticalAlign=middle;whiteSpace=wrap;rounded=0;" vertex="1" parent="1">
          <mxGeometry x="690" y="220" width="40" height="20" as="geometry" />
        </mxCell>
        <mxCell id="SO3rEvhul7Cc8DTPVC8Q-17" value="" style="endArrow=classic;html=1;exitX=0.5;exitY=1;exitDx=0;exitDy=0;entryX=0.5;entryY=0;entryDx=0;entryDy=0;" edge="1" parent="1" source="SO3rEvhul7Cc8DTPVC8Q-14" target="SO3rEvhul7Cc8DTPVC8Q-11">
          <mxGeometry width="50" height="50" relative="1" as="geometry">
            <mxPoint x="550" y="460" as="sourcePoint" />
            <mxPoint x="600" y="410" as="targetPoint" />
          </mxGeometry>
        </mxCell>
        <mxCell id="SO3rEvhul7Cc8DTPVC8Q-18" value="rotateEnd-rotateStart" style="text;html=1;strokeColor=none;fillColor=none;align=center;verticalAlign=middle;whiteSpace=wrap;rounded=0;" vertex="1" parent="1">
          <mxGeometry x="690" y="340" width="40" height="20" as="geometry" />
        </mxCell>
        <mxCell id="SO3rEvhul7Cc8DTPVC8Q-19" value="偏移量规格化" style="rounded=1;whiteSpace=wrap;html=1;" vertex="1" parent="1">
          <mxGeometry x="440" y="440" width="120" height="60" as="geometry" />
        </mxCell>
        <mxCell id="SO3rEvhul7Cc8DTPVC8Q-20" value="" style="endArrow=classic;html=1;exitX=0.5;exitY=1;exitDx=0;exitDy=0;entryX=0.5;entryY=0;entryDx=0;entryDy=0;" edge="1" parent="1" source="SO3rEvhul7Cc8DTPVC8Q-13" target="SO3rEvhul7Cc8DTPVC8Q-19">
          <mxGeometry width="50" height="50" relative="1" as="geometry">
            <mxPoint x="510" y="270" as="sourcePoint" />
            <mxPoint x="510" y="330" as="targetPoint" />
          </mxGeometry>
        </mxCell>
        <mxCell id="SO3rEvhul7Cc8DTPVC8Q-21" value="球坐标系接受入参" style="rounded=1;whiteSpace=wrap;html=1;" vertex="1" parent="1">
          <mxGeometry x="440" y="560" width="120" height="60" as="geometry" />
        </mxCell>
        <mxCell id="SO3rEvhul7Cc8DTPVC8Q-22" value="" style="endArrow=classic;html=1;exitX=0.5;exitY=1;exitDx=0;exitDy=0;entryX=0.5;entryY=0;entryDx=0;entryDy=0;" edge="1" parent="1" source="SO3rEvhul7Cc8DTPVC8Q-19" target="SO3rEvhul7Cc8DTPVC8Q-21">
          <mxGeometry width="50" height="50" relative="1" as="geometry">
            <mxPoint x="470" y="550" as="sourcePoint" />
            <mxPoint x="520" y="500" as="targetPoint" />
          </mxGeometry>
        </mxCell>
        <mxCell id="SO3rEvhul7Cc8DTPVC8Q-23" value="参数传递" style="text;html=1;strokeColor=none;fillColor=none;align=center;verticalAlign=middle;whiteSpace=wrap;rounded=0;" vertex="1" parent="1">
          <mxGeometry x="520" y="520" width="60" height="20" as="geometry" />
        </mxCell>
        <mxCell id="SO3rEvhul7Cc8DTPVC8Q-24" value="规格化参数根据项目信息调试" style="text;html=1;strokeColor=none;fillColor=none;align=center;verticalAlign=middle;whiteSpace=wrap;rounded=0;" vertex="1" parent="1">
          <mxGeometry x="690" y="460" width="90" height="20" as="geometry" />
        </mxCell>
        <mxCell id="SO3rEvhul7Cc8DTPVC8Q-25" value="" style="endArrow=classic;html=1;exitX=0.5;exitY=1;exitDx=0;exitDy=0;" edge="1" parent="1" source="SO3rEvhul7Cc8DTPVC8Q-21">
          <mxGeometry width="50" height="50" relative="1" as="geometry">
            <mxPoint x="350" y="790" as="sourcePoint" />
            <mxPoint x="440" y="680" as="targetPoint" />
          </mxGeometry>
        </mxCell>
        <mxCell id="SO3rEvhul7Cc8DTPVC8Q-26" value="" style="endArrow=classic;html=1;" edge="1" parent="1">
          <mxGeometry width="50" height="50" relative="1" as="geometry">
            <mxPoint x="500" y="620" as="sourcePoint" />
            <mxPoint x="560" y="680" as="targetPoint" />
          </mxGeometry>
        </mxCell>
        <mxCell id="SO3rEvhul7Cc8DTPVC8Q-27" value="水平偏移" style="rounded=1;whiteSpace=wrap;html=1;" vertex="1" parent="1">
          <mxGeometry x="370" y="680" width="120" height="60" as="geometry" />
        </mxCell>
        <mxCell id="SO3rEvhul7Cc8DTPVC8Q-28" value="垂直偏移" style="rounded=1;whiteSpace=wrap;html=1;" vertex="1" parent="1">
          <mxGeometry x="510" y="680" width="120" height="60" as="geometry" />
        </mxCell>
        <mxCell id="SO3rEvhul7Cc8DTPVC8Q-29" value="" style="endArrow=classic;html=1;exitX=0.5;exitY=1;exitDx=0;exitDy=0;" edge="1" parent="1" source="SO3rEvhul7Cc8DTPVC8Q-27">
          <mxGeometry width="50" height="50" relative="1" as="geometry">
            <mxPoint x="440" y="800" as="sourcePoint" />
            <mxPoint x="430" y="800" as="targetPoint" />
          </mxGeometry>
        </mxCell>
        <mxCell id="SO3rEvhul7Cc8DTPVC8Q-30" value="" style="endArrow=classic;html=1;exitX=0.5;exitY=1;exitDx=0;exitDy=0;" edge="1" parent="1" source="SO3rEvhul7Cc8DTPVC8Q-28">
          <mxGeometry width="50" height="50" relative="1" as="geometry">
            <mxPoint x="620" y="850" as="sourcePoint" />
            <mxPoint x="570" y="800" as="targetPoint" />
          </mxGeometry>
        </mxCell>
        <mxCell id="SO3rEvhul7Cc8DTPVC8Q-31" value="theat更新" style="rounded=1;whiteSpace=wrap;html=1;" vertex="1" parent="1">
          <mxGeometry x="370" y="800" width="120" height="60" as="geometry" />
        </mxCell>
        <mxCell id="SO3rEvhul7Cc8DTPVC8Q-32" value="phi更新" style="rounded=1;whiteSpace=wrap;html=1;" vertex="1" parent="1">
          <mxGeometry x="510" y="800" width="120" height="60" as="geometry" />
        </mxCell>
        <mxCell id="SO3rEvhul7Cc8DTPVC8Q-33" value="" style="endArrow=classic;html=1;" edge="1" parent="1">
          <mxGeometry width="50" height="50" relative="1" as="geometry">
            <mxPoint x="730" y="490" as="sourcePoint" />
            <mxPoint x="730" y="550" as="targetPoint" />
          </mxGeometry>
        </mxCell>
        <mxCell id="SO3rEvhul7Cc8DTPVC8Q-34" value="二维变量分别存储水平，垂直偏移角度" style="rounded=1;whiteSpace=wrap;html=1;" vertex="1" parent="1">
          <mxGeometry x="675" y="555" width="120" height="60" as="geometry" />
        </mxCell>
        <mxCell id="SO3rEvhul7Cc8DTPVC8Q-35" value="" style="endArrow=classic;html=1;exitX=0.5;exitY=1;exitDx=0;exitDy=0;" edge="1" parent="1" source="SO3rEvhul7Cc8DTPVC8Q-31">
          <mxGeometry width="50" height="50" relative="1" as="geometry">
            <mxPoint x="550" y="1000" as="sourcePoint" />
            <mxPoint x="500" y="960" as="targetPoint" />
          </mxGeometry>
        </mxCell>
        <mxCell id="SO3rEvhul7Cc8DTPVC8Q-36" value="" style="endArrow=classic;html=1;exitX=0.5;exitY=1;exitDx=0;exitDy=0;" edge="1" parent="1" source="SO3rEvhul7Cc8DTPVC8Q-32">
          <mxGeometry width="50" height="50" relative="1" as="geometry">
            <mxPoint x="510" y="970" as="sourcePoint" />
            <mxPoint x="500" y="960" as="targetPoint" />
          </mxGeometry>
        </mxCell>
        <mxCell id="SO3rEvhul7Cc8DTPVC8Q-37" value="update" style="rounded=1;whiteSpace=wrap;html=1;" vertex="1" parent="1">
          <mxGeometry x="440" y="960" width="120" height="60" as="geometry" />
        </mxCell>
        <mxCell id="SO3rEvhul7Cc8DTPVC8Q-38" value="" style="endArrow=none;dashed=1;html=1;dashPattern=1 3;strokeWidth=2;entryX=0;entryY=0.5;entryDx=0;entryDy=0;" edge="1" parent="1" target="SO3rEvhul7Cc8DTPVC8Q-14">
          <mxGeometry width="50" height="50" relative="1" as="geometry">
            <mxPoint x="321" y="110" as="sourcePoint" />
            <mxPoint x="400" y="250" as="targetPoint" />
          </mxGeometry>
        </mxCell>
        <mxCell id="SO3rEvhul7Cc8DTPVC8Q-39" value="" style="endArrow=none;dashed=1;html=1;dashPattern=1 3;strokeWidth=2;exitX=1;exitY=0.5;exitDx=0;exitDy=0;entryX=0;entryY=0.5;entryDx=0;entryDy=0;" edge="1" parent="1" source="SO3rEvhul7Cc8DTPVC8Q-7" target="SO3rEvhul7Cc8DTPVC8Q-11">
          <mxGeometry width="50" height="50" relative="1" as="geometry">
            <mxPoint x="350" y="390" as="sourcePoint" />
            <mxPoint x="400" y="340" as="targetPoint" />
          </mxGeometry>
        </mxCell>
        <mxCell id="SO3rEvhul7Cc8DTPVC8Q-40" value="" style="endArrow=none;dashed=1;html=1;dashPattern=1 3;strokeWidth=2;exitX=1;exitY=0.5;exitDx=0;exitDy=0;" edge="1" parent="1" source="SO3rEvhul7Cc8DTPVC8Q-14" target="SO3rEvhul7Cc8DTPVC8Q-15">
          <mxGeometry width="50" height="50" relative="1" as="geometry">
            <mxPoint x="710" y="190" as="sourcePoint" />
            <mxPoint x="760" y="140" as="targetPoint" />
          </mxGeometry>
        </mxCell>
        <mxCell id="SO3rEvhul7Cc8DTPVC8Q-41" value="" style="endArrow=none;dashed=1;html=1;dashPattern=1 3;strokeWidth=2;exitX=1;exitY=0.5;exitDx=0;exitDy=0;" edge="1" parent="1">
          <mxGeometry width="50" height="50" relative="1" as="geometry">
            <mxPoint x="560" y="229.5" as="sourcePoint" />
            <mxPoint x="680" y="230" as="targetPoint" />
          </mxGeometry>
        </mxCell>
        <mxCell id="SO3rEvhul7Cc8DTPVC8Q-42" value="" style="endArrow=none;dashed=1;html=1;dashPattern=1 3;strokeWidth=2;exitX=1;exitY=0.5;exitDx=0;exitDy=0;" edge="1" parent="1">
          <mxGeometry width="50" height="50" relative="1" as="geometry">
            <mxPoint x="560" y="469.5" as="sourcePoint" />
            <mxPoint x="690" y="469.5" as="targetPoint" />
          </mxGeometry>
        </mxCell>
        <mxCell id="SO3rEvhul7Cc8DTPVC8Q-43" value="" style="endArrow=none;dashed=1;html=1;dashPattern=1 3;strokeWidth=2;exitX=1;exitY=0.5;exitDx=0;exitDy=0;" edge="1" parent="1">
          <mxGeometry width="50" height="50" relative="1" as="geometry">
            <mxPoint x="560" y="349.5" as="sourcePoint" />
            <mxPoint x="670" y="350" as="targetPoint" />
          </mxGeometry>
        </mxCell>
      </root>
    </mxGraphModel>
  </diagram>
</mxfile>
